<svg width="85" height="87" viewBox="0 0 85 87" fill="none" xmlns="http://www.w3.org/2000/svg">
<path d="M65.9017 72.3717H37.9238V53.1833H33.2608V72.3717H19.2719V53.1833H14.6089V72.3717C14.6089 73.644 15.1002 74.8641 15.9746 75.7637C16.8491 76.6634 18.0352 77.1688 19.2719 77.1688H65.9017C67.1384 77.1688 68.3245 76.6634 69.1989 75.7637C70.0734 74.8641 70.5647 73.644 70.5647 72.3717V53.1833H65.9017V72.3717Z" fill="#FF944C"/>
<path d="M79.401 32.244L69.8885 12.6719C69.5025 11.8727 68.9074 11.2001 68.1701 10.7298C67.4329 10.2594 66.5827 10.01 65.7152 10.0095H19.4583C18.5908 10.01 17.7407 10.2594 17.0034 10.7298C16.2661 11.2001 15.671 11.8727 15.285 12.6719L5.77249 32.244C5.4477 32.9144 5.28002 33.6537 5.28287 34.4027V41.7902C5.28074 42.9111 5.6602 43.9973 6.35536 44.8603C7.38275 46.0719 8.65164 47.0418 10.0758 47.704C11.5 48.3662 13.046 48.7052 14.6088 48.698C17.159 48.7021 19.6313 47.7949 21.6033 46.1316C23.5753 47.7959 26.0471 48.7054 28.5978 48.7054C31.1485 48.7054 33.6203 47.7959 35.5923 46.1316C37.5643 47.7959 40.0361 48.7054 42.5868 48.7054C45.1374 48.7054 47.6092 47.7959 49.5812 46.1316C51.5532 47.7959 54.025 48.7054 56.5757 48.7054C59.1264 48.7054 61.5982 47.7959 63.5702 46.1316C65.7715 47.991 68.5878 48.8999 71.4271 48.6673C74.2663 48.4347 76.9073 47.0787 78.7948 44.8843C79.4984 44.0246 79.8862 42.938 79.8906 41.8142V34.4027C79.8935 33.6537 79.7258 32.9144 79.401 32.244ZM35.5923 34.9544V38.6001L33.6805 41.1906C33.0936 42.0135 32.3265 42.6827 31.4415 43.1439C30.5565 43.6052 29.5783 43.8456 28.5861 43.8456C27.594 43.8456 26.6158 43.6052 25.7308 43.1439C24.8457 42.6827 24.0787 42.0135 23.4918 41.1906L21.6033 38.5042V34.9544L27.6419 14.8066H37.9238L35.5923 34.9544ZM63.5702 38.5042L61.6817 41.1906C61.0948 42.0135 60.3278 42.6827 59.4427 43.1439C58.5577 43.6052 57.5795 43.8456 56.5874 43.8456C55.5952 43.8456 54.617 43.6052 53.732 43.1439C52.847 42.6827 52.0799 42.0135 51.4931 41.1906L49.5812 38.5042V34.9544L47.2497 14.8066H57.6249L63.5702 34.9544V38.5042Z" fill="#FF944C"/>
</svg>
