<svg width="69" height="69" viewBox="0 0 69 69" fill="none" xmlns="http://www.w3.org/2000/svg">
<path d="M3.53558 3.44067H31.6456V31.5507H3.53558V3.44067ZM9.15758 9.06267V25.9287H26.0236V9.06267H9.15758Z" fill="#FF944C"/>
<path fill-rule="evenodd" clip-rule="evenodd" d="M14.7796 14.6846H20.4016V20.3066H14.7796V14.6846Z" fill="#FF944C"/>
<path d="M37.2676 3.44067H65.3776V31.5507H37.2676V3.44067ZM42.8896 9.06267V25.9287H59.7556V9.06267H42.8896Z" fill="#FF944C"/>
<path fill-rule="evenodd" clip-rule="evenodd" d="M48.5116 14.6846H54.1336V20.3066H48.5116V14.6846Z" fill="#FF944C"/>
<path d="M3.53558 37.1726H31.6456V65.2826H3.53558V37.1726ZM9.15758 42.7946V59.6606H26.0236V42.7946H9.15758Z" fill="#FF944C"/>
<path fill-rule="evenodd" clip-rule="evenodd" d="M14.7796 48.4165H20.4016V54.0385H14.7796V48.4165Z" fill="#FF944C"/>
<path d="M65.3776 54.0386H54.1336V65.2826H37.2676V37.1726V54.0386H42.8896V59.6606H48.5116V42.7946H42.8896V37.1726H40.0786H48.5116V42.7946H54.1336V48.4166H59.7556V37.1726H65.3776V54.0386ZM65.3776 59.6606V65.2826H59.7556V59.6606H65.3776Z" fill="#FF944C"/>
</svg>
