<svg width="63" height="69" viewBox="0 0 63 69" fill="none" xmlns="http://www.w3.org/2000/svg">
<path d="M8.1139 68.0233C5.96833 68.0233 4.13224 67.3633 2.60564 66.0432C1.07903 64.7232 0.314429 63.1344 0.311829 61.2769V20.7985C0.311829 18.9433 1.07643 17.3556 2.60564 16.0356C4.13485 14.7155 5.97093 14.0544 8.1139 14.0521H15.916C15.916 10.3416 17.4439 7.16517 20.4997 4.52283C23.5555 1.8805 27.229 0.559326 31.5201 0.559326C35.8113 0.559326 39.4848 1.8805 42.5406 4.52283C45.5964 7.16517 47.1243 10.3416 47.1243 14.0521H54.9264C57.0719 14.0521 58.9093 14.7133 60.4385 16.0356C61.9677 17.3579 62.731 18.9455 62.7284 20.7985V61.2769C62.7284 63.1321 61.9651 64.7209 60.4385 66.0432C58.9119 67.3655 57.0745 68.0255 54.9264 68.0233H8.1139ZM8.1139 61.2769H54.9264V20.7985H47.1243V27.5449C47.1243 28.5006 46.7498 29.3023 46.0008 29.95C45.2518 30.5977 44.3259 30.9204 43.2233 30.9181C42.1206 30.9159 41.1947 30.592 40.4457 29.9466C39.6967 29.3012 39.3222 28.5006 39.3222 27.5449V20.7985H23.7181V27.5449C23.7181 28.5006 23.3436 29.3023 22.5946 29.95C21.8456 30.5977 20.9197 30.9204 19.817 30.9181C18.7143 30.9159 17.7885 30.592 17.0395 29.9466C16.2905 29.3012 15.916 28.5006 15.916 27.5449V20.7985H8.1139V61.2769ZM23.7181 14.0521H39.3222C39.3222 12.1969 38.5589 10.6092 37.0323 9.28916C35.5057 7.96912 33.6683 7.30797 31.5201 7.30572C29.372 7.30347 27.5359 7.96462 26.0119 9.28916C24.4879 10.6137 23.7233 12.2014 23.7181 14.0521Z" fill="#FF944C"/>
</svg>
