<svg width="44" height="75" viewBox="0 0 44 75" fill="none" xmlns="http://www.w3.org/2000/svg">
<path d="M35.9671 0H7.66383C5.78721 0 3.98745 0.780431 2.66047 2.16961C1.3335 3.55878 0.588013 5.44291 0.588013 7.4075V66.6675C0.588013 68.6321 1.3335 70.5162 2.66047 71.9054C3.98745 73.2946 5.78721 74.075 7.66383 74.075H35.9671C37.8437 74.075 39.6435 73.2946 40.9705 71.9054C42.2975 70.5162 43.0429 68.6321 43.0429 66.6675V7.4075C43.0429 5.44291 42.2975 3.55878 40.9705 2.16961C39.6435 0.780431 37.8437 0 35.9671 0ZM25.3534 70.3713H18.2776V66.6675H25.3534V70.3713ZM35.9671 62.9638H7.66383V11.1113H35.9671V62.9638Z" fill="#FF944C"/>
</svg>
